<svg width="19" height="26" viewBox="0 0 19 26" fill="none" xmlns="http://www.w3.org/2000/svg">
<path d="M9.33333 0C10.3942 0 11.4116 0.421427 12.1618 1.17157C12.9119 1.92172 13.3333 2.93913 13.3333 4V12C13.3333 13.0609 12.9119 14.0783 12.1618 14.8284C11.4116 15.5786 10.3942 16 9.33333 16C8.27247 16 7.25505 15.5786 6.50491 14.8284C5.75476 14.0783 5.33333 13.0609 5.33333 12V4C5.33333 2.93913 5.75476 1.92172 6.50491 1.17157C7.25505 0.421427 8.27247 0 9.33333 0ZM18.6667 12C18.6667 16.7067 15.1867 20.5867 10.6667 21.24V25.3333H8V21.24C3.48 20.5867 0 16.7067 0 12H2.66667C2.66667 13.7681 3.36905 15.4638 4.61929 16.714C5.86953 17.9643 7.56522 18.6667 9.33333 18.6667C11.1014 18.6667 12.7971 17.9643 14.0474 16.714C15.2976 15.4638 16 13.7681 16 12H18.6667Z" fill="#1565C0"/>
</svg>
